<?xml version="1.0" encoding="UTF-8" standalone="no"?> 
<svg
   xmlns:svg="http://www.w3.org/2000/svg"
   xmlns="http://www.w3.org/2000/svg"
   width="100px"
   height="100px"> 
<style type="text/css"><![CDATA[
      path {
        fill: #FFF;
        fill-opacity: 1;
        stroke: #000000;
        stroke-width: 3;
        stroke-miterlimit: 4;
        stroke-dasharray: none;
        stroke-opacity: 1;
        display: inline;
      }
      .filled
      {
        fill: gold;
      }
    ]]></style>

  <g transform="scale(.5, .5)"> 
      <path
         id="slice1"
         d="M 48.953389,129.32227 C 35.778603,121.65098 26.163946,108.19871 23.9882,91.928477 C 20.247277,63.961327 39.904091,38.260267 67.891529,34.522084 C 79.590763,32.959602 90.89707,35.48435 100.36535,40.993226" /> 
      <path
         id="slice7"
         d="M 100.36609,40.994813 C 105.95262,37.794073 112.24191,35.602198 119.0193,34.696543 C 147.00646,30.958412 172.7266,50.60093 176.4667,78.566494 C 179.2718,99.540426 168.9171,119.24304 151.7571,129.35893 C 151.57812,129.46468 151.39807,129.56913 151.21769,129.67256" /> 
      <path
         id="slice5"
         d="M 151.21728,129.66983 C 151.16375,154.83152 132.5101,176.7095 106.85769,180.13535 C 78.871373,183.87354 53.151644,164.23106 49.410773,136.26467 C 49.09808,133.93196 48.948809,131.61428 48.953389,129.32445" /> 
      <path
         id="slice4"
         d="M 100.6281,129.18473 C 94.909112,132.55709 88.431639,134.86414 81.434832,135.79882 C 69.730992,137.36239 58.423252,134.83574 48.953389,129.32227 L 48.953389,129.32456 C 48.993227,110.81119 59.102747,94.075891 74.657823,85.159484" /> 
      <path
         id="slice6"
         d="M 125.79517,85.335612 C 138.96796,93.005601 148.58466,106.45941 150.7615,122.72932 C 151.07284,125.0623 151.22114,127.37997 151.21728,129.66983 L 151.21769,129.67245 C 145.63121,132.87437 139.3419,135.06767 132.56446,135.97288 C 120.86143,137.53573 109.5556,135.01099 100.08564,129.49937" /> 
      <path
         id="slice2"
         d="M 74.660862,85.160971 C 74.698352,66.64605 84.807212,49.911157 100.36609,40.994813 L 100.36535,40.993226 C 113.54203,48.663371 123.16167,62.118677 125.33857,78.391978 C 125.65076,80.72615 125.79892,83.043472 125.79517,85.333948" /> 
      <path
         id="slice3"
         d="M 74.657823,85.159484 C 80.246626,81.957965 86.534841,79.763828 93.312485,78.858234 C 105.01636,77.296475 116.32525,79.820463 125.79517,85.335612 L 125.79517,85.333948 C 125.75566,103.63134 115.87981,120.19378 100.6281,129.18473 L 100.08574,129.49937 C 86.910216,121.82861 77.291746,108.37481 75.115125,92.103066 C 74.804126,89.76879 74.65467,87.451478 74.660862,85.160971 L 74.657823,85.159484 z" /> 
  </g> 
<script type="text/javascript">
  var m = location.search.match(/\?(.+)/);
  if (m)
  {
    var slices = {
      union: [1,2,3,4,5,6,7],
      difference: [1,5,7],
      intersection: [3],
      atleastoneexclude: [1,2,4,5,6,7],
      morethanoneinclude: [2,3,4,6]
    }[m[1]];

    if (slices)
      for (var i = 0, slice; slice = slices[i++];)
        document.getElementById('slice' + slice).setAttribute('class', 'filled');
  }
</script>

</svg> 